<svg xmlns="http://www.w3.org/2000/svg" width="240" height="48" viewBox="0 0 240 48"><g data-name="グループ 1312"><g data-name="グループ 1"><path data-name="パス 1" d="M60.042 27.523h-1.764v-4.448a1.293 1.293 0 00-1.289-1.288h-.157a1.292 1.292 0 00-1.285 1.288v4.447h-2.286v-4.447a1.292 1.292 0 00-1.291-1.288h-.153a1.29 1.29 0 00-1.287 1.288v4.447h-2.683v-4.447a1.292 1.292 0 00-1.286-1.288h-.158a1.292 1.292 0 00-1.287 1.288v4.447h-1.169a1.294 1.294 0 00-1.29 1.288v.154a1.292 1.292 0 001.29 1.29h1.169v11.553a1.293 1.293 0 001.287 1.29h.158c.021 0 .045-.007.068-.007h13.343a1.3 1.3 0 001.288-1.288v-.156a1.292 1.292 0 00-1.288-1.287H47.847v-10.1h2.685v5.889a1.291 1.291 0 001.287 1.288h.153a1.286 1.286 0 001.275-1.17h2.31a1.291 1.291 0 001.276 1.166h.157a1.294 1.294 0 001.289-1.288v-5.889h1.764a1.294 1.294 0 001.29-1.29v-.154a1.3 1.3 0 00-1.29-1.288m-4.5 6.358H53.26v-3.625h2.287z" fill="#fff"/><path data-name="パス 2" d="M96.555 35.81h3.431a1.292 1.292 0 001.289-1.288v-6.256a1.291 1.291 0 00-1.289-1.289h-6.258v-1.072h7.271a1.294 1.294 0 001.291-1.288v-.109a1.3 1.3 0 00-1.291-1.29h-7.271v-.36a1.292 1.292 0 00-1.287-1.287h-.155a1.292 1.292 0 00-1.288 1.287v.364h-7.452a1.294 1.294 0 00-1.29 1.29v.109a1.292 1.292 0 001.29 1.288h7.451v1.071h-6.506a1.293 1.293 0 00-1.291 1.289v6.253a1.294 1.294 0 001.291 1.288h3.684l-5.418 4.912a1.289 1.289 0 00-.088 1.818l.071.082a1.294 1.294 0 001.822.088l6.082-5.511a1.262 1.262 0 00.353-.555v5.422a1.292 1.292 0 001.288 1.29h.155a1.292 1.292 0 001.287-1.29v-5.4a1.254 1.254 0 00.325.491l6.023 5.573a1.289 1.289 0 001.821-.068l.074-.081a1.293 1.293 0 00-.068-1.822zm-2.827-3.288H98.4v1.131h-4.672zm4.672-2.261h-4.672v-1.127H98.4zm-7.4 0h-4.979v-1.127h4.973zm-4.979 2.261h4.973v1.131h-4.973zm4.965 3.287h.007v.018l-.007-.018" fill="#fff"/><path data-name="パス 3" d="M157.516 24.093h-.985l.293-.813a1.289 1.289 0 00-.777-1.647l-.187-.069a1.3 1.3 0 00-1.649.775l-.6 1.668v-1.212a1.291 1.291 0 00-1.288-1.286h-.2a1.291 1.291 0 00-1.289 1.286v1.3h-1.9v-1.3a1.291 1.291 0 00-1.29-1.286h-.2a1.291 1.291 0 00-1.289 1.286v1.3h-.769l-.632-1.754a1.3 1.3 0 00-1.651-.775l-.187.069a1.289 1.289 0 00-.775 1.647l.293.813h-.648a1.245 1.245 0 00-1.239 1.238v.106a1.249 1.249 0 001.243 1.244h2.316v1.73h-2.32a1.246 1.246 0 00-1.243 1.243v.106a1.245 1.245 0 001.243 1.241h6.556v.64h-4.766a1.248 1.248 0 00-1.243 1.243v.1a1.247 1.247 0 001.243 1.244h4.766v.664h-6.556a1.247 1.247 0 00-1.243 1.242v.106a1.248 1.248 0 001.243 1.243h2.677l-3.407 2.877a1.246 1.246 0 00-.147 1.752l.067.082a1.25 1.25 0 001.753.145l5.613-4.74v4.132a1.289 1.289 0 001.288 1.286h.2a1.291 1.291 0 001.29-1.286v-4.2l5.509 4.7a1.247 1.247 0 001.754-.14l.068-.078a1.249 1.249 0 00-.14-1.754l-3.251-2.774h2.453a1.247 1.247 0 001.245-1.243v-.106a1.246 1.246 0 00-1.245-1.242h-5.8a1.235 1.235 0 00-.317 0h-.277v-.663h4.6a1.247 1.247 0 001.245-1.244v-.1a1.248 1.248 0 00-1.245-1.243h-4.6v-.64h6.393a1.244 1.244 0 001.245-1.242v-.106a1.245 1.245 0 00-1.245-1.243h-2.224v-1.729h2.224a1.249 1.249 0 001.245-1.244v-.109a1.244 1.244 0 00-1.241-1.24m-4.84 4.32h-5.953v-1.727h5.953z" fill="#fff"/><path data-name="パス 4" d="M212.686 29.998a1.155 1.155 0 001.152-1.156v-.095a1.158 1.158 0 00-1.152-1.156h-7.178a1.159 1.159 0 00-1.155 1.156v.095a1.157 1.157 0 001.155 1.156z" fill="#fff"/><path data-name="パス 5" d="M227.204 35.379a1.154 1.154 0 001.629.085l.074-.062a1.158 1.158 0 00.088-1.629l-2.8-3.119 2.527-3.175c.025-.033.04-.068.066-.1a1.142 1.142 0 00.244-.7v-.1a1.158 1.158 0 00-1.154-1.155h-1.3v-2.841a1.293 1.293 0 00-1.288-1.291h-.2a1.293 1.293 0 00-1.287 1.291v2.842h-2.82a1.157 1.157 0 00-1.154 1.155v.1a1.157 1.157 0 001.154 1.154h4.261l-5.882 7.387a1.2 1.2 0 00.191 1.684l.081.066a1.2 1.2 0 001.687-.191l2.172-2.729v7.27a1.3 1.3 0 001.289 1.291h.2a1.294 1.294 0 001.287-1.291v-6.983z" fill="#fff"/><path data-name="パス 6" d="M238.814 39.884h-3.751v-8.508h3.156a1.157 1.157 0 001.151-1.156v-.1a1.153 1.153 0 00-1.151-1.154h-3.156v-6.415a1.292 1.292 0 00-1.288-1.286h-.2a1.293 1.293 0 00-1.291 1.288v6.412h-3.314a1.157 1.157 0 00-1.154 1.154v.1a1.161 1.161 0 001.154 1.156h3.314v8.509h-3.927a1.185 1.185 0 00-1.184 1.183v.1a1.186 1.186 0 001.184 1.185h10.458a1.189 1.189 0 001.181-1.187v-.1a1.189 1.189 0 00-1.186-1.183" fill="#fff"/><path data-name="パス 7" d="M217.127 32.136h-16.1a1.158 1.158 0 00-1.154 1.156v.1a1.157 1.157 0 001.154 1.153h2.012l-2.336 6.219a1.238 1.238 0 00.62 1.515 1.271 1.271 0 00.465.154.183.183 0 01.038 0c.039 0 .075.012.116.012h14.026a1.25 1.25 0 00.277-.035 1.354 1.354 0 00.247-.059l.1-.037a1.236 1.236 0 00.747-1.579l-1.707-4.759a1.243 1.243 0 00-1.581-.748l-.1.037a1.238 1.238 0 00-.751 1.582l1.068 2.978h-10.461l1.98-5.28h11.34a1.155 1.155 0 001.152-1.153v-.1a1.157 1.157 0 00-1.152-1.156" fill="#fff"/><path data-name="パス 8" d="M191.033 37.705a1.133 1.133 0 00-1.463-.652l-2.289.874v-5.17h1.806a1.113 1.113 0 001.107-1.107v-.094a1.112 1.112 0 00-1.107-1.107h-7.218a1.11 1.11 0 00-1.107 1.107v.094a1.111 1.111 0 001.107 1.107h2.8v6.168l-3.28 1.25a1.14 1.14 0 00-.656 1.464l.036.092a1.137 1.137 0 001.465.655l8.179-3.128a1.134 1.134 0 00.654-1.463z" fill="#fff"/><path data-name="パス 9" d="M176.276 32.937h1.785a1.18 1.18 0 001.175-1.178v-.1a1.179 1.179 0 00-1.175-1.173h-3.378v-2.948h3.355a1.11 1.11 0 001.108-1.1v-.1a1.112 1.112 0 00-1.109-1.112h-3.355v-2.4a1.292 1.292 0 00-1.29-1.288h-.2a1.291 1.291 0 00-1.285 1.288v2.4h-.823l.454-1.655a1.109 1.109 0 00-.777-1.353l-.093-.025a1.112 1.112 0 00-1.356.784l-.926 3.349a1.114 1.114 0 00-1.107-1.1h-1.118v-2.4a1.291 1.291 0 00-1.289-1.288h-.2a1.291 1.291 0 00-1.29 1.288v2.4h-2.4a1.112 1.112 0 00-1.107 1.108v.1a1.11 1.11 0 001.107 1.1h2.179l-3.732 9.559a1.247 1.247 0 00.732 1.6l.1.036a1.248 1.248 0 001.6-.732l1.522-3.894v7.435a1.289 1.289 0 001.288 1.288h.2a1.289 1.289 0 001.289-1.286v-8.241l.712 1.315a1.176 1.176 0 001.6.453l.087-.047a1.182 1.182 0 00.453-1.6l-.433-.8a1.167 1.167 0 00.8.318h1.08l-3.498 7.212a1.247 1.247 0 00.6 1.657l.094.046a1.245 1.245 0 001.656-.6l2.6-5.365v5.656a1.289 1.289 0 001.288 1.286h.2a1.29 1.29 0 001.29-1.286v-5.927l2.687 5.62a1.247 1.247 0 001.666.567l.092-.047a1.249 1.249 0 00.569-1.668zm-8.079-1.278v.1a1.037 1.037 0 00.02.191l-2.06-3.8v-.609h1.122a1.1 1.1 0 00.9-.473l-.376 1.371a1.108 1.108 0 00.779 1.358l.091.023a1.108 1.108 0 001.357-.778l.412-1.5a.218.218 0 00.04 0h1.42v2.944h-2.533a1.18 1.18 0 00-1.177 1.173" fill="#fff"/><path data-name="パス 10" d="M198.402 39.908h-1.837l-4.335-12.371h5.411a1.109 1.109 0 001.108-1.1v-.098a1.112 1.112 0 00-1.108-1.11h-1.788v-2.143a1.248 1.248 0 00-1.244-1.246h-.1a1.245 1.245 0 00-1.25 1.246v2.143h-1.838l-1-2.863a1.272 1.272 0 00-1.613-.78l-.1.034a1.271 1.271 0 00-.781 1.614l.7 2h-7.37a1.113 1.113 0 00-1.108 1.109v.086a1.109 1.109 0 001.108 1.1h8.178l4.909 14.019a.986.986 0 00.053.111.36.36 0 00.025.059c.018.03.031.06.05.089a1.206 1.206 0 001.046.613h2.89a1.213 1.213 0 001.21-1.209v-.1a1.211 1.211 0 00-1.21-1.207" fill="#fff"/><path data-name="パス 11" d="M138.174 39.383h-6.026V25.458h5.6a1.247 1.247 0 001.245-1.247v-.105a1.247 1.247 0 00-1.238-1.242h-13.859a1.249 1.249 0 00-1.241 1.242v.105a1.249 1.249 0 001.245 1.247h5.4v13.925h-5.845a1.326 1.326 0 00-1.321 1.32v.112a1.327 1.327 0 001.321 1.326h14.717a1.326 1.326 0 001.32-1.322v-.112a1.325 1.325 0 00-1.32-1.32" fill="#fff"/><path data-name="パス 12" d="M120.11 40.419c.018-.011.04-.012.057-.024l.078-.045a1.112 1.112 0 00.446-1.5l-1.381-2.375a1.09 1.09 0 00-.157-.213h.355c.023 0 .05.009.073.009h.2a1.292 1.292 0 001.287-1.29v-6.987a1.29 1.29 0 00-1.287-1.288h-2.013l1.98-2.63a1.292 1.292 0 00-.253-1.806l-.086-.063a1.293 1.293 0 00-1.806.254l-.288.384h-7.77a1.268 1.268 0 00-.478-.747l-.083-.065a1.3 1.3 0 00-1.808.253l-1.944 2.739a1.29 1.29 0 00.122 1.681h-1.078a1.173 1.173 0 00-1.166 1.169v.095a1.172 1.172 0 001.166 1.168h14.015v1.107h-14.017a1.173 1.173 0 00-1.166 1.169v.1a1.17 1.17 0 001.166 1.164h14.015v1.157h-14.015a1.172 1.172 0 00-1.164 1.159v.1a1.171 1.171 0 001.166 1.166h5.006v5.325a1.288 1.288 0 001.057 1.265 1.217 1.217 0 00.248.028h9.476a1.187 1.187 0 001.183-1.183v-.1a1.183 1.183 0 00-1.133-1.176m-2.832-2.838l1.386 2.37a1.09 1.09 0 00.485.46h-2.87a.154.154 0 00.042-.016l.082-.045a1.114 1.114 0 00.444-1.5l-1.384-2.373a1.141 1.141 0 00-.161-.213h2.178a1.114 1.114 0 00-.2 1.32m-9.9-10.947l1.069-1.5h7.143l-.858 1.139a1.25 1.25 0 00-.208.43h-7.219a.532.532 0 00.06-.067m6.266 9.627a1.11 1.11 0 00-.2 1.32l1.386 2.37a1.075 1.075 0 00.483.46h-3.248v-4.15z" fill="#fff"/><path data-name="パス 13" d="M107.914 37.064l-.088-.064a1.294 1.294 0 00-1.8.253l-2.687 3.632a1.292 1.292 0 00.254 1.805l.086.066a1.292 1.292 0 001.806-.255l2.688-3.63a1.294 1.294 0 00-.255-1.806" fill="#fff"/><path data-name="パス 14" d="M71.592 37.522a1.216 1.216 0 00-1.373-1.029l-.1.015a1.217 1.217 0 00-1.033 1.37l.339 2.962a1.22 1.22 0 001.374 1.03l.1-.016a1.215 1.215 0 001.029-1.373z" fill="#fff"/><path data-name="パス 15" d="M65.227 36.772l-.1-.034a1.3 1.3 0 00-1.626.824l-1.342 3.679a1.29 1.29 0 00.826 1.624l.1.036a1.293 1.293 0 001.624-.825l1.343-3.677a1.3 1.3 0 00-.826-1.627" fill="#fff"/><path data-name="パス 16" d="M81.375 39.477a1.363 1.363 0 00-1.909-.221l-1.362 1.076h-3.209v-7.656h4.126a1.287 1.287 0 001.279-1.2h.012v-8.22h-.008a1.289 1.289 0 00-1.284-1.216h-6.1a1.292 1.292 0 00-1.294 1.286v.11a1.294 1.294 0 001.289 1.288h4.9v5.267h-4.327a1.3 1.3 0 00-1.291 1.29v.109a1.24 1.24 0 00.025.214v9.8a1.23 1.23 0 00-.025.214v.111a1.294 1.294 0 001.291 1.286h5.137a1.352 1.352 0 001.012-.28l1.588-1.259a1.365 1.365 0 00.22-1.91z" fill="#fff"/><path data-name="パス 17" d="M70.281 35.947a.978.978 0 00.2 0h.035a1.289 1.289 0 00.515-.159l.093-.051a1.3 1.3 0 00.488-1.759l-1.191-2.372a1.291 1.291 0 00-1.755-.484l-.095.054a1.29 1.29 0 00-.487 1.756l.064.129h-1.5l3.237-4.055a1.294 1.294 0 00-.232-1.809l-.085-.066a1.292 1.292 0 00-1.807.228l-.9 1.123-.859-1.27 2.82-3.391a1.3 1.3 0 00-.233-1.809l-.085-.067a1.3 1.3 0 00-1.809.23l-2.267 2.731a1.289 1.289 0 00-1.729-.2l-.088.065a1.289 1.289 0 00-.283 1.8l2.619 3.869a1.058 1.058 0 00.193.207l-2.53 3.179a1.287 1.287 0 00.23 1.806l.088.067a1.214 1.214 0 00.5.233v.017h.108a1.171 1.171 0 00.371 0h2.282v6.117a1.293 1.293 0 001.291 1.287h.156a1.291 1.291 0 001.288-1.287v-6.119z" fill="#fff"/><path data-name="パス 18" d="M219.35 30.695a1.248 1.248 0 00-.194-1.751l-8.945-7.24a1.26 1.26 0 00-.713-.271h-.792a1.267 1.267 0 00-.695.278l-8.943 7.248a1.25 1.25 0 00-.171 1.752l.121.147a1.246 1.246 0 001.752.173l8.344-6.766 8.367 6.776a1.24 1.24 0 001.745-.195z" fill="#fff"/><path data-name="パス 19" d="M3.931 24.251c-.521-.06-.954.686-.608.967.154.125.468.028.837-.346a.941.941 0 011.428.005c.562.809-.5 2.055-1.292 1.747-.544-.208-.17-.519.056-.424.4.159 1.048-.405.9-.834-.12-.336-.322-.514-.89-.047-.512.424-.921.577-1.319.283-.92-.679.311-2.024.937-1.867.406.1.278.552-.047.514" fill="#47a638"/><path data-name="パス 20" d="M4.363 22.858c.12-.117.977-.945 1.082-1.045a.109.109 0 01.167 0c.039.04.138.141.17.177s.024.07-.011.1-.781.751-.819.785a.117.117 0 000 .165l.388.4c.077.081.13.061.19 0s.629-.607.726-.7c.028-.03.082-.061.123-.016s.116.118.133.137c.069.075.063.133 0 .192s-.642.618-.691.663c-.077.079-.073.133-.009.2s.4.411.432.447c.109.11.133.122.256 0 .064-.062.628-.605.7-.68s.144-.095.261.025.062.211.023.249-.914.883-1 .963a.245.245 0 01-.381.009c-.122-.123-1.63-1.685-1.719-1.78-.115-.113-.143-.171-.018-.291" fill="#47a638"/><path data-name="パス 21" d="M8.213 23.125a.214.214 0 11-.334.267l-1.529-1.96a.215.215 0 11.336-.262z" fill="#47a638"/><path data-name="パス 22" d="M10.41 21.733l-1.746-.545.343-1.339a.242.242 0 00-.168-.3.238.238 0 00-.287.177l-.4 1.554-.431-.7a.235.235 0 10-.4.245l1.3 2.115a.246.246 0 00.328.09.24.24 0 00.07-.334l-.523-.856.05-.2 1.727.538a.234.234 0 10.137-.447" fill="#47a638"/><path data-name="パス 23" d="M18.173 19.662l-1.375-1.2.852-1.09a.236.236 0 00-.029-.336.242.242 0 00-.337.045l-.99 1.261-.109-.817a.235.235 0 10-.465.062l.33 2.457a.241.241 0 00.264.213.244.244 0 00.2-.275l-.133-1 .127-.161 1.36 1.192a.238.238 0 00.338-.017.235.235 0 00-.032-.334" fill="#47a638"/><path data-name="パス 24" d="M27.199 18.266a.239.239 0 00-.319-.112l-1.454.678.273-.778a.235.235 0 10-.444-.155l-.817 2.342a.234.234 0 10.441.154l.331-.949.182-.088.68 1.68a.234.234 0 10.432-.18l-.682-1.7 1.252-.581a.239.239 0 00.125-.315" fill="#47a638"/><path data-name="パス 25" d="M11.348 21.392a.214.214 0 11-.38.189l-1.111-2.215a.215.215 0 11.381-.19z" fill="#47a638"/><path data-name="パス 26" d="M20.39 17.019a.263.263 0 00-.367.046l-.724 1.064h-.005l-.685-1.039a.264.264 0 00-.367-.055.263.263 0 00-.1.357l.881 1.334c.006.009.017.014.022.023l-.005.927a.28.28 0 00.555 0v-1.007l.878-1.291a.262.262 0 00-.087-.359" fill="#47a638"/><path data-name="パス 27" d="M34.367 22.413a.265.265 0 00-.315-.195l-1.229.373h-.009l.124-1.241a.261.261 0 00-.248-.271.268.268 0 00-.3.212l-.16 1.591v.032l-.587.716a.279.279 0 00.429.35l.637-.779 1.5-.451a.265.265 0 00.158-.337" fill="#47a638"/><path data-name="パス 28" d="M11.981 18.678l.73-.278a.233.233 0 00.154-.288.23.23 0 00-.3-.111l-1.885.722a.231.231 0 00-.148.283.232.232 0 00.3.111l.75-.286.835 2.181a.229.229 0 00.284.153.232.232 0 00.114-.3z" fill="#47a638"/><path data-name="パス 29" d="M14.121 17.499a1.5 1.5 0 00-1.067 1.83 1.507 1.507 0 001.642 1.342 1.508 1.508 0 001.067-1.833 1.5 1.5 0 00-1.642-1.339m.493 2.724c-.462.087-.93-.358-1.043-.989a1.037 1.037 0 01.63-1.291c.462-.084.932.36 1.044.988a1.039 1.039 0 01-.632 1.292" fill="#47a638"/><path data-name="パス 30" d="M29.02 18.865a1.513 1.513 0 00-1.978.772 1.511 1.511 0 00.455 2.074 1.508 1.508 0 001.975-.773 1.511 1.511 0 00-.453-2.073m-1.308 2.444a1.038 1.038 0 01-.2-1.422 1.039 1.039 0 011.3-.62 1.039 1.039 0 01.2 1.423 1.039 1.039 0 01-1.3.62" fill="#47a638"/><path data-name="パス 31" d="M35.628 23.444a1.507 1.507 0 00-2.12-.039 1.506 1.506 0 00-.372 2.089 1.512 1.512 0 002.122.041 1.516 1.516 0 00.37-2.09m-2.142 1.758a1.04 1.04 0 01.355-1.394 1.04 1.04 0 011.437-.077 1.042 1.042 0 01-.355 1.392 1.039 1.039 0 01-1.437.077" fill="#47a638"/><path data-name="パス 32" d="M21.204 17.23c-.01.182-.113 1.834-.126 2.026-.029.467 1.329.55 1.359.085.02-.331.1-1.652.12-1.937.017-.258.548-.209.534.028-.016.265-.111 1.772-.127 2-.057.946-2.425.793-2.366-.148l.128-2.074c.016-.208.491-.175.478.025" fill="#47a638"/><path data-name="パス 33" d="M30.961 21.516c-.057-.044-.183.015-.23.082a.16.16 0 00.023.251c.082.063.283.211.381.283-.2.82-.611.7-1.073.358a1.083 1.083 0 01-.012-1.487 1.069 1.069 0 011.419-.431.794.794 0 01.312.591.253.253 0 00.252.24c.111-.014.195-.133.18-.323a1.178 1.178 0 00-.525-.809 1.468 1.468 0 00-2.02.453 1.468 1.468 0 00.174 2.065c.609.445.933.43 1.081.392.34-.087.634-.607.837-1.079-.083-.059-.74-.541-.8-.586" fill="#47a638"/><path data-name="パス 34" d="M19.501 41.313c6.112 0 11.072-3.926 11.072-8.769s-4.96-8.762-11.072-8.762S8.43 27.706 8.43 32.547s4.957 8.766 11.071 8.766" fill="#47a638"/><path data-name="パス 35" d="M5.876 32.611c.536 5.519 6.206 9.59 13.669 9.59 7.24 0 12.63-3.613 13.668-9.428 0 0-.018-.107.081-.107s.083.1.083.1c-.379 5.98-6.141 10.784-13.829 10.784-7.654 0-13.7-4.632-13.938-10.939a.146.146 0 01.122-.091.187.187 0 01.144.091" fill="#47a638"/><path data-name="パス 36" d="M36.275 32.766c-.32 7.291-7.862 12.947-16.726 12.947-9.032 0-16.3-5.606-16.8-13.1a.114.114 0 01.112-.095.121.121 0 01.122.089c.612 6.587 7.803 11.787 16.566 11.787 8.652 0 15.9-5.22 16.476-11.64 0 0 .025-.093.11-.093s.14.1.14.1" fill="#47a638"/><path data-name="パス 37" d="M39.151 32.741c-.654 8.886-8.869 15.26-19.6 15.26C8.762 48.001.116 41.2 0 32.622a.12.12 0 01.128-.1c.118 0 .125.075.125.075.369 7.4 8.9 14 19.294 14 10.336 0 18.126-6.142 19.336-13.761 0 0-.035-.167.132-.167a.168.168 0 01.136.077" fill="#47a638"/><path data-name="パス 38" d="M19.549 29.788a25.267 25.267 0 01-9.193-1.736l-.1.125a15.1 15.1 0 019.08 12.818l.08.082.081-.082a15.52 15.52 0 019.286-12.872l-.082-.112a23.938 23.938 0 01-9.153 1.773" fill="#fff"/></g><g data-name="アートワーク 24"><g data-name="グループ 1308" fill="#fff"><path data-name="パス 310" d="M3.636.157c.16.3.493.964.611 1.24H7.1l.34-.59.172-.7 1.11.018-.428.682-.1.59h2.716v.928H6.062v.951h4.3v.792h-4.3v1.087h5.26v.859H6a4.365 4.365 0 01-.206 1.137h5.194v.75H6.567c-.079.192.649 1.22 1.472 1.6a7.3 7.3 0 003.153 1 3.834 3.834 0 01-.492.952 9.5 9.5 0 01-3.152-1.236A4.239 4.239 0 015.7 8.108s-.282.118-.308.175a4.831 4.831 0 01-2.022 2.12 9.947 9.947 0 01-2.932 1.094 9.484 9.484 0 00-.411-.872 11.128 11.128 0 002.725-.9c.806-.4 1.756-1.4 1.772-1.833H.269v-.747h4.573a1.893 1.893 0 00.175-1.131H0v-.859h5.143V4.07H.852v-.792h4.291v-.953H.344v-.928h2.763l-.039-.4-.38-.715z"/><path data-name="パス 311" d="M14.562.643l1.209-.015c-.018 1.89-.192 4.083-.192 6.386 0 1.034.062 2.058.855 2.566a3.357 3.357 0 001.868.475 3.956 3.956 0 002.344-.857 5.5 5.5 0 001.426-3.167c.238.063.695.175 1.061.237a6.53 6.53 0 01-1.878 3.668 4.564 4.564 0 01-3.016 1.068 4.231 4.231 0 01-2.692-.825 3.515 3.515 0 01-1.031-2.772c.002-1.947-.024-4.166.046-6.764z"/><path data-name="パス 312" d="M25.461 1.138l1.063.144a22.936 22.936 0 00-.285 3.626 11.179 11.179 0 00.585 3.817c.158.348.616 1 1.141 1 .7 0 1.567-1.092 2.167-2.962a4.067 4.067 0 00.793.474 7.245 7.245 0 01-1.044 2.218 2.631 2.631 0 01-1.9 1.364 2.453 2.453 0 01-1.442-.523 3.739 3.739 0 01-.84-1.633 19.14 19.14 0 01-.521-4.465 12.353 12.353 0 01.283-3.06zm7.746.3a6.219 6.219 0 011.852 2.691 15.135 15.135 0 01.664 5.164l-1.06.126a15.976 15.976 0 00-.554-4.783 6.585 6.585 0 00-1.727-2.631z"/><path data-name="パス 313" d="M39.67 5.385h1.857v3.443H39.67zM38.837.5v10.158h.837V9.7h2.722V.5zm.833.881h1.857v3.3H39.67zm7.115-.144V0h-.979v1.238h-2.61V2.1h2.61v1.64h-2.943v.813h4.633v1.57h-4.564v.835h4.523v3.269c-.01.143-.006.224-.184.243h-1.875c.108.2.206.712.268.868a9.5 9.5 0 002.216-.045 1.169 1.169 0 00.554-1.09V6.957h1.193v-.835H48.44v-1.57h1.195v-.813h-2.85V2.1h2.481v-.862zm-3.46 6.727a8.176 8.176 0 011.571 1.949l.681-.617a6.137 6.137 0 00-1.583-1.9z"/><path data-name="パス 314" d="M54.285 0l.982.142a18.669 18.669 0 01-1.014 2.8v8.422h-.957V4.908c-.391.335-.722 1-1.022 1.266-.253-.456-.4-.649-.556-1C52.995 3.987 53.845 1.582 54.285 0zm6.606 3.328c.547-.034 2.28-.235 2.28-.235l.015.851s-1.273.183-1.96.231-2.206.1-2.206.1c.019.251.04.7.066.907a9.487 9.487 0 00.758 2.752c.36.858.965 2.3 1.666 2.3.581 0 .837-1.25.891-1.924a3.354 3.354 0 01.938.4c-.119 1.047-.761 2.674-1.71 2.674-.772 0-1.6-1.014-2.021-1.779a13.075 13.075 0 01-1.127-2.794 14.455 14.455 0 01-.429-2.425l-2.878.227V3.68l2.76-.175c-.071-.987-.27-2.163-.325-3.476l.952-.007c.008 1.312.253 3.377.253 3.377s1.533-.035 2.078-.071zM60.37.108a18.675 18.675 0 012.09 1.781l-.712.772A9.216 9.216 0 0059.825.774z"/><path data-name="パス 315" d="M69.485 2.374a2.137 2.137 0 011.6.556 46.692 46.692 0 005.94 5.052l-.747.934a66.693 66.693 0 01-5.606-5.021c-.566-.567-.847-.523-1.061-.523a1.136 1.136 0 00-.73.4c-1.14 1.266-1.917 2.286-2.564 3.025l-.808-.887c1.043-1.061 1.115-1.117 1.948-2.091.289-.337 1.192-1.445 2.028-1.445z"/><path data-name="パス 316" d="M104.819 6.232V5.42h2.574v.812zm0-4.242v-.752h-.737v.752h-4.052v.709h4.052v.647h-3.451v3.493h2.705a2.522 2.522 0 01-1.015.983 9.367 9.367 0 01-2.358 1.187 2.4 2.4 0 01.38.7 9.13 9.13 0 003.739-2.66v2.867h.737V7.124c.363.328 1.009 1.013 1.4 1.3a10.162 10.162 0 002.232 1.3 4.41 4.41 0 01.46-.712 10.589 10.589 0 01-1.994-.888 7.194 7.194 0 01-1.584-1.283h2.838V3.346h-3.35v-.647h3.933V1.99zm-3.472 4.242V5.42h2.735v.812zm0-2.345h2.735v.959h-2.735zm6.047 0v.959h-2.574v-.96z"/><path data-name="パス 317" d="M113.597 2.336h2.946l-.951 1.027h-3.3c.427-.307.908-.689 1.305-1.027zm-2.98.986a3.7 3.7 0 01.384.588c.108-.047.358-.144.441-.175v.248h6.563v.8h-6.684v.639h6.684v.809h-6.684v.6h7.418V3.383h-2.234l1.1-1.108v-.46l-3.5.009a2.288 2.288 0 00.429-.528l-.714-.188a6.759 6.759 0 01-3.203 2.215zm.018 5.849a3.457 3.457 0 00.509.536 4.115 4.115 0 001.36-2.043l-.68-.269a4 4 0 01-1.189 1.776zm2.455.362a.7.7 0 00.632.42h2.635a.705.705 0 00.54-.262 2.941 2.941 0 00.428-1.3c-.111-.033-.524-.175-.681-.222-.1.493-.092 1.036-.344 1.036h-2.068c-.244-.008-.366-.1-.366-.293V7.388h-.77zm1.269-2.06a7.659 7.659 0 011.076 1.014l.46-.441a7.886 7.886 0 00-1.157-.985zm3.181.254a8.578 8.578 0 011.361 2.028l.556-.519a7.622 7.622 0 00-1.347-1.9z"/><path data-name="パス 318" d="M129.021.983l.542 1.173-.572.266-.616-1.388zm-1.329-.017l.538 1.314-.57.175-.522-1.3zm-3.539.368l.895.157c-.209.447-.454.932-.651 1.3l4.149-.009.011.541a9.688 9.688 0 01-1.468 3.3 9.13 9.13 0 01-2.09 1.915 8.517 8.517 0 01-2.96 1.046c-.085-.141-.286-.6-.412-.761a8.637 8.637 0 002.234-.586 5.932 5.932 0 002.423-1.823 7.475 7.475 0 001.409-3.018h-3.706a12.917 12.917 0 01-.838 1.041 7.642 7.642 0 01-1.412 1.187 2.958 2.958 0 01-.569-.6 9.37 9.37 0 001.821-1.522 9.213 9.213 0 001.164-2.168z"/><path data-name="パス 319" d="M131.667 1.812h.728a24.214 24.214 0 01-.309 5.42 5.694 5.694 0 01-1.574 2.475c.26-.233-.323-.424-.559-.689a3.929 3.929 0 001.459-2.162 22.781 22.781 0 00.255-5.044zm2.63-.312h.715v6.958c1.706-.3 2.831-1.776 3.179-3.836a4.231 4.231 0 00.682.318c-.317 1.22-.887 3.721-4.041 4.392h-.535z"/><path data-name="パス 320" d="M140.376 5.034h8.413v.85h-8.413z"/><path data-name="パス 321" d="M156.756 2.34a.525.525 0 01-.149-.366.535.535 0 01.149-.375.524.524 0 01.9.375.519.519 0 01-.9.366zm-.319-1.055a.969.969 0 000 1.377.973.973 0 101.376-1.377.971.971 0 00-1.376 0zm-.161.911h-6.69v.659h6.6a6.635 6.635 0 01-1 3.23c-.892 1.472-3.175 2.4-4.75 2.528.082.12.283.641.592.8a7.533 7.533 0 004.4-2.329c1-1.152 1.245-2.292 1.671-4.311l-.659-.615z"/><path data-name="長方形 668" d="M78.928 4.939h18.36v.811h-18.36zm17.977.383H79.311v.041h17.594z"/></g></g></g></svg>